<svg width="1533" height="280" viewBox="0 0 1533 280" fill="none" xmlns="http://www.w3.org/2000/svg">
<path fill-rule="evenodd" clip-rule="evenodd" d="M-0.000732422 280L269.057 55.952C272.353 53.0785 275.023 49.5586 276.902 45.6105C278.781 41.6624 279.829 37.3703 279.981 33.0005C280.133 28.6306 279.385 24.2761 277.784 20.2072C276.183 16.1382 273.764 12.4415 270.675 9.34636C267.579 6.2514 263.88 3.8261 259.807 2.22153C255.733 0.616972 251.374 -0.132578 246.999 0.0191954C242.624 0.170969 238.326 1.22085 234.374 3.1038C230.422 4.98676 226.899 7.66241 224.025 10.9645L-0.000732422 280ZM129.795 41.3583L16.507 126.317L101.473 13.0388C103.21 10.7227 105.425 8.80675 107.967 7.42022C110.509 6.03368 113.32 5.20893 116.208 5.00182C119.097 4.79471 121.995 5.21001 124.709 6.21966C127.423 7.2293 129.889 8.80979 131.939 10.8542C133.993 12.9022 135.582 15.3677 136.599 18.0837C137.617 20.7998 138.038 23.7029 137.834 26.5961C137.631 29.4892 136.808 32.3047 135.421 34.8518C134.034 37.3989 132.115 39.6178 129.795 41.3583ZM266.957 178.534L153.669 263.492L238.635 150.214C240.373 147.898 242.588 145.982 245.13 144.595C247.672 143.209 250.482 142.384 253.37 142.177C256.258 141.97 259.157 142.385 261.871 143.395C264.585 144.404 267.051 145.985 269.101 148.029C271.155 150.077 272.745 152.543 273.762 155.259C274.779 157.975 275.2 160.878 274.996 163.771C274.793 166.664 273.969 169.48 272.582 172.027C271.195 174.574 269.277 176.793 266.957 178.534Z" fill="black"/>
<path fill-rule="evenodd" clip-rule="evenodd" d="M430 140C430 103.021 461.434 71 505 71C526.597 71 545.888 78.8808 559.61 91.2653C560.43 92.0053 561.693 91.9777 562.456 91.1786L588.69 63.6875C589.453 62.8884 589.425 61.6212 588.612 60.8727C566.943 40.9086 537.204 29 505 29C440.536 29 388 77.5917 388 140C388 202.408 440.536 251 505 251C533.661 251 561.988 241.389 582.971 224.908L590.235 219.203C590.718 218.824 591 218.244 591 217.63V208.393V190V187.854V140L591 124C591 122.895 590.105 122 589 122H535.862C535.312 122 534.786 122.227 534.408 122.627L500.427 158.627C499.223 159.903 500.127 162 501.881 162H547C548.105 162 549 162.895 549 164V187.854V190V196.171C549 196.882 548.624 197.54 548.005 197.89C535.818 204.772 520.631 209 505 209C461.434 209 430 176.979 430 140ZM1143.99 34.001H1096.92C1095.28 34.001 1094.34 35.8771 1095.32 37.1963L1172.03 140.102C1172.57 140.818 1172.56 141.802 1172.02 142.511L1095.39 242.787C1094.39 244.103 1095.33 246.001 1096.98 246.001H1147.93C1148.57 246.001 1149.16 245.703 1149.54 245.196L1198.36 179.712C1199.16 178.639 1200.76 178.639 1201.56 179.712L1250.38 245.196C1250.76 245.703 1251.35 246.001 1251.98 246.001H1302.93C1304.59 246.001 1305.53 244.103 1304.52 242.787L1227.9 142.511C1227.36 141.802 1227.35 140.818 1227.88 140.102L1304.6 37.1963C1305.58 35.8771 1304.64 34.001 1302.99 34.001H1255.93C1255.3 34.001 1254.72 34.2915 1254.34 34.7866L1201.55 103.869C1200.75 104.917 1199.17 104.917 1198.37 103.869L1145.58 34.7866C1145.2 34.2915 1144.61 34.001 1143.99 34.001ZM772.699 33.999H727.301C726.51 33.999 725.793 34.4652 725.473 35.1884L633.246 243.188C632.66 244.511 633.628 245.999 635.075 245.999H678.685C679.483 245.999 680.205 245.525 680.521 244.792L698.148 204H801.852L819.479 244.792C819.795 245.525 820.517 245.999 821.315 245.999H864.926C866.372 245.999 867.34 244.511 866.754 243.188L774.528 35.1883C774.207 34.4652 773.49 33.999 772.699 33.999ZM785.432 166H714.568L748.164 88.2488C748.859 86.6399 751.141 86.6399 751.836 88.2488L785.432 166ZM916.93 34C915.825 34 914.93 34.8954 914.93 36V244C914.93 245.105 915.825 246 916.93 246H949.93H960.93H1033.96C1034.57 246 1035.15 245.72 1035.53 245.239L1062.37 211.239C1063.41 209.928 1062.47 208 1060.8 208H962.93V36C962.93 34.8954 962.035 34 960.93 34H916.93ZM1401 74C1401 72.8954 1401.9 72 1403 72H1527C1528.1 72 1529 71.1046 1529 70V36C1529 34.8954 1528.1 34 1527 34H1355C1354.98 34 1354.96 34.0003 1354.94 34.001C1353.87 34.001 1353 34.8683 1353 35.9381V244.001C1353 245.106 1353.9 246.001 1355 246.001H1401C1401 246.001 1401 246.001 1401 246C1401 246 1401 246 1401 246H1531C1532.1 246 1533 245.105 1533 244V210C1533 208.895 1532.1 208 1531 208H1403C1401.9 208 1401 207.105 1401 206V160C1401 158.895 1401.9 158 1403 158H1519C1520.1 158 1521 157.105 1521 156V122C1521 120.895 1520.1 120 1519 120H1403C1401.9 120 1401 119.105 1401 118V74Z" fill="black"/>
</svg>
