<svg width="151" height="24" viewBox="0 0 151 24" fill="none" xmlns="http://www.w3.org/2000/svg">
<path fill-rule="evenodd" clip-rule="evenodd" d="M21.1009 3.66577C21.3592 4.23404 21.1083 4.9064 20.5423 5.16726L2.58408 15.219L19.5807 3.10851L19.5969 3.10151C20.1676 2.84284 20.8416 3.09562 21.1009 3.66577ZM27.3966 4.46021C27.7909 4.59188 28.1107 4.86923 28.2966 5.24108L28.296 5.24105C28.4818 5.6129 28.5118 6.03521 28.3801 6.42952C28.2485 6.82381 27.9711 7.14369 27.5993 7.32952L0 21L26.1989 4.54871L26.2081 4.54437C26.58 4.35854 27.0023 4.32856 27.3966 4.46021ZM21.5272 15.2217C21.9836 14.991 22.1684 14.4326 21.9396 13.9746C21.7102 13.5153 21.1495 13.3279 20.6902 13.5579L20.6774 13.5645L9.74873 19.9542L21.5272 15.2223V15.2217ZM65.1561 20.1531V3.02057H66.9918V20.1531H65.1561ZM36.4377 19.2476C37.6288 19.9818 39.0484 20.3489 40.6964 20.3489C41.6754 20.3489 42.5402 20.2021 43.2908 19.9084C44.0576 19.6147 44.7103 19.2394 45.2487 18.7825C45.7872 18.3093 46.2276 17.8117 46.5704 17.2895V20.1531H48.2593V11.5379H40.6474V13.2022H46.5704C46.5704 14.3281 46.2929 15.2907 45.7382 16.0903C45.1998 16.8898 44.49 17.5016 43.6089 17.9259C42.7441 18.3501 41.8222 18.5622 40.8432 18.5622C39.5379 18.5622 38.412 18.2767 37.4657 17.7056C36.5356 17.1182 35.8259 16.335 35.3363 15.356C34.8468 14.3607 34.6021 13.2593 34.6021 12.0519C34.6021 10.8281 34.8468 9.72675 35.3363 8.74774C35.8422 7.76878 36.5683 6.99372 37.5146 6.42263C38.461 5.83524 39.5869 5.54153 40.8922 5.54153C42.1323 5.54153 43.1847 5.79445 44.0495 6.30026C44.9305 6.80606 45.6159 7.49137 46.1051 8.35616H48.1125C47.5087 7.00187 46.5621 5.9005 45.2732 5.05203C44.0005 4.18725 42.4912 3.75486 40.7453 3.75486C39.13 3.75486 37.7186 4.13014 36.5112 4.88071C35.3201 5.61496 34.3982 6.61029 33.7455 7.86666C33.0928 9.12303 32.7665 10.5181 32.7665 12.0519C32.7665 13.5856 33.0847 14.9808 33.721 16.2371C34.3573 17.4935 35.2629 18.497 36.4377 19.2476ZM52.8764 19.5168C53.7737 20.0715 54.8184 20.3489 56.0094 20.3489C57.0209 20.3489 57.8856 20.1531 58.6035 19.7615C59.3379 19.3699 59.9334 18.8478 60.3904 18.1951V20.1531H62.2261V7.91562H60.3904V9.89808C59.9334 9.2291 59.3379 8.69882 58.6035 8.3072C57.8856 7.91562 57.0209 7.71981 56.0094 7.71981C54.8184 7.71981 53.7737 8.00536 52.8764 8.57646C51.9956 9.13122 51.3099 9.88993 50.8207 10.8526C50.3311 11.799 50.0862 12.8595 50.0862 14.0344C50.0862 15.1929 50.3311 16.2534 50.8207 17.2161C51.3099 18.1788 51.9956 18.9457 52.8764 19.5168ZM58.5547 18.0482C57.9348 18.4725 57.1677 18.6846 56.2542 18.6846C55.3568 18.6846 54.5814 18.4725 53.9288 18.0482C53.2763 17.624 52.7788 17.0611 52.436 16.3595C52.0931 15.6415 51.9219 14.8665 51.9219 14.0344C51.9219 13.1859 52.0931 12.4109 52.436 11.7093C52.7788 11.0076 53.2763 10.4447 53.9288 10.0204C54.5814 9.59624 55.3568 9.38409 56.2542 9.38409C57.1677 9.38409 57.9348 9.59624 58.5547 10.0204C59.1911 10.4447 59.6725 11.0076 59.9988 11.7093C60.325 12.4109 60.4884 13.1859 60.4884 14.0344C60.4884 14.8665 60.325 15.6415 59.9988 16.3595C59.6725 17.0611 59.1911 17.624 58.5547 18.0482ZM73.1616 13.8385L68.4377 20.1531H70.763L74.2384 15.1602L77.6894 20.1531H80.0391L75.2909 13.8385L79.7207 7.91558H77.3714L74.2384 12.5413L71.081 7.91558H68.7313L73.1616 13.8385ZM86.4009 20.3489C85.1612 20.3489 84.076 20.0715 83.146 19.5168C82.2159 18.9457 81.4898 18.1788 80.9674 17.2161C80.4617 16.2534 80.209 15.1929 80.209 14.0344C80.209 12.8595 80.4534 11.799 80.943 10.8526C81.4327 9.88993 82.134 9.13122 83.048 8.57646C83.9619 8.00536 85.0387 7.71981 86.2785 7.71981C87.5348 7.71981 88.6121 8.00536 89.5095 8.57646C90.423 9.13122 91.1248 9.88993 91.6144 10.8526C92.1036 11.799 92.3484 12.8595 92.3484 14.0344V14.7686H82.0935C82.1915 15.4865 82.4198 16.1474 82.7787 16.7511C83.1538 17.3385 83.6517 17.8117 84.2716 18.1707C84.8919 18.5133 85.6098 18.6846 86.4253 18.6846C87.2905 18.6846 88.0162 18.497 88.6038 18.1217C89.191 17.7301 89.648 17.2324 89.9743 16.6287H91.9812C91.5569 17.7219 90.88 18.6193 89.9499 19.321C89.036 20.0063 87.8533 20.3489 86.4009 20.3489ZM82.1179 13.0554H90.4396C90.2762 12.0111 89.8358 11.1382 89.1179 10.4365C88.4 9.73494 87.4534 9.38409 86.2785 9.38409C85.1036 9.38409 84.1575 9.73494 83.4396 10.4365C82.7378 11.1382 82.2974 12.0111 82.1179 13.0554Z" fill="black"/>
<path d="M106.083 20.1522H101.585V3.75391H106.083C110.862 3.75391 114.282 7.43182 114.282 11.9531C114.282 16.4743 110.862 20.1522 106.083 20.1522ZM102.78 4.83151V19.0746H106.083C110.159 19.0746 113.111 15.8887 113.111 11.9531C113.111 8.01748 110.159 4.83151 106.083 4.83151H102.78Z" fill="black"/>
<path d="M121.689 20.2694C118.339 20.2694 115.762 17.5519 115.762 14.1786C115.762 10.8052 118.339 8.08775 121.689 8.08775C125.039 8.08775 127.616 10.8052 127.616 14.1786C127.616 17.5519 125.039 20.2694 121.689 20.2694ZM121.689 19.1918C124.43 19.1918 126.468 16.9429 126.468 14.1786C126.468 11.4143 124.43 9.16536 121.689 9.16536C118.948 9.16536 116.887 11.4143 116.887 14.1786C116.887 16.9429 118.948 19.1918 121.689 19.1918Z" fill="black"/>
<path d="M134.639 20.2694C131.312 20.2694 128.712 17.5519 128.712 14.1786C128.712 10.8052 131.312 8.08775 134.639 8.08775C137.356 8.08775 139.535 9.84472 140.261 12.281H139.043C138.387 10.4069 136.724 9.16536 134.639 9.16536C131.921 9.16536 129.836 11.4143 129.836 14.1786C129.836 16.9429 131.921 19.1918 134.639 19.1918C136.724 19.1918 138.387 17.9502 139.043 16.0761H140.261C139.535 18.5124 137.356 20.2694 134.639 20.2694Z" fill="black"/>
<path d="M145.891 20.2694C143.361 20.2694 141.651 19.0512 141.346 16.9429H142.471C142.775 18.5124 144.087 19.2855 145.891 19.2855C147.765 19.2855 148.866 18.4656 148.866 17.1068C148.866 15.8653 147.906 15.2796 145.469 14.5768C143.197 13.9443 141.651 13.1244 141.651 11.18C141.651 9.25906 143.221 8.08775 145.516 8.08775C147.812 8.08775 149.358 9.28249 149.616 11.2971H148.538C148.281 9.86814 147.156 9.07165 145.516 9.07165C143.853 9.07165 142.752 9.86814 142.752 11.18C142.752 12.445 143.83 13.0307 146.032 13.6632C148.609 14.3894 149.967 15.2093 149.967 17.1068C149.967 19.0981 148.398 20.2694 145.891 20.2694Z" fill="black"/>
</svg>
